<svg width="509" height="20" viewBox="0 0 509 20" fill="none" xmlns="http://www.w3.org/2000/svg">
<path fill-rule="evenodd" clip-rule="evenodd" d="M506.589 3.37184C506.589 3.37191 506.586 3.37128 506.579 3.36973C506.586 3.37099 506.59 3.37177 506.589 3.37184ZM337.81 8.04782C341.928 7.87902 346.046 7.71223 350.164 7.54795C350.233 7.54522 351.002 7.51375 352.374 7.45762C369.101 6.77324 475.415 2.42336 493.384 1.8149C494.405 1.78035 495.939 1.63174 497.687 1.44741C498.068 1.40719 498.458 1.36541 498.853 1.3232C500.229 1.17593 501.653 1.02343 502.921 0.91326C504.477 0.778093 506.055 0.679307 507.032 0.802478C507.283 0.834143 507.651 0.897224 507.999 1.05692C508.378 1.23064 508.949 1.63694 508.963 2.33304C508.975 2.89736 508.593 3.29228 508.406 3.46288C508.18 3.66925 507.901 3.84846 507.628 4.00301C505.103 5.43065 502.131 5.68547 499.378 5.68454C498.322 5.68418 497.238 5.64455 496.199 5.60657C495.884 5.59502 495.572 5.58363 495.267 5.57354C493.927 5.52924 492.67 5.50806 491.488 5.58225C476.912 6.49743 462.321 7.30904 447.715 7.94476C429.805 8.72436 407.272 9.36748 381.904 9.89635C381.897 9.94008 381.888 9.98268 381.878 10.024C381.712 10.6962 381.353 11.2864 380.786 11.7561C380.226 12.2194 379.544 12.4987 378.854 12.6615C377.531 12.9734 375.975 12.9028 374.551 12.7508C373.449 12.6333 372.264 12.4459 371.148 12.2693C370.797 12.2138 370.453 12.1593 370.121 12.1085C368.666 11.886 367.421 11.7301 366.443 11.7402C355.719 11.8505 328.347 11.8349 314.903 11.8272C312.735 11.8259 310.929 11.8249 309.614 11.8247C302.541 12.1258 295.467 12.4296 288.391 12.7334C210.699 16.0693 132.853 19.4119 55.0596 19.4119C54.1734 19.4119 53.4549 18.8316 53.4549 18.1158C53.4549 17.4 54.1734 16.8197 55.0596 16.8197C118.155 16.8197 181.274 14.6188 244.368 12.0055C203.195 12.2353 162.038 12.6831 120.85 13.3418C120.01 13.3552 119.307 12.8443 119.222 12.181C73.8503 12.2446 36.5839 12.1679 16.9713 12.0695C11.5291 12.0422 7.44229 12.0133 4.9179 11.9851C3.66101 11.9711 2.77541 11.9571 2.30295 11.9432C2.18524 11.9398 2.07932 11.9359 1.99455 11.9314C1.95467 11.9292 1.90006 11.9259 1.84359 11.9206C1.81309 11.9176 1.74844 11.9098 1.70758 11.9038C1.63474 11.8913 1.39518 11.8294 1.23184 11.7667C0.672332 11.3585 0.547849 10.0711 1.14889 9.52692C1.33955 9.44438 1.61894 9.36634 1.70003 9.35194C1.80393 9.33548 1.89768 9.32936 1.92644 9.32748L1.92867 9.32733C2.01374 9.32174 2.11822 9.31791 2.22324 9.31484C3.88811 9.26613 12.6295 9.23244 30.0087 9.23244C39.5226 9.23244 49.0362 9.23387 58.5498 9.2353C119.041 9.24438 179.525 9.25346 240.007 8.89526C273.857 8.69479 283.419 8.58972 296.558 8.44535C305.52 8.34686 316.147 8.23009 337.284 8.05227C337.459 8.05079 337.635 8.04931 337.81 8.04782Z" fill="#FF7AD6"/>
</svg>
