<svg width="140" height="9" viewBox="0 0 140 9" fill="none" xmlns="http://www.w3.org/2000/svg">
<path fill-rule="evenodd" clip-rule="evenodd" d="M138.741 1.35797C138.741 1.358 138.74 1.35775 138.738 1.35712C138.74 1.35763 138.741 1.35794 138.741 1.35797ZM92.6506 3.36064C93.7752 3.28945 94.8997 3.21908 96.0242 3.14974C96.0429 3.14858 96.2529 3.13531 96.6275 3.11163C101.195 2.82298 130.227 0.988325 135.133 0.729961C135.412 0.715289 135.831 0.653784 136.308 0.577583C136.412 0.560952 136.519 0.543685 136.627 0.526239C137.002 0.465369 137.391 0.402336 137.737 0.356665C138.162 0.300632 138.593 0.259435 138.86 0.309155C138.929 0.321937 139.029 0.347475 139.124 0.412455C139.228 0.483138 139.384 0.648632 139.389 0.932706C139.392 1.163 139.288 1.32439 139.237 1.39411C139.176 1.47846 139.1 1.55175 139.025 1.61498C138.337 2.19902 137.525 2.30467 136.774 2.30583C136.485 2.30628 136.189 2.29071 135.905 2.27579C135.819 2.27125 135.734 2.26678 135.651 2.26283C135.285 2.2455 134.941 2.23756 134.619 2.2685C130.639 2.65014 126.654 2.98952 122.666 3.25713C117.775 3.5853 111.622 3.86036 104.694 4.09038C104.693 4.10823 104.69 4.12562 104.687 4.14248C104.643 4.41693 104.545 4.65799 104.391 4.84998C104.238 5.03938 104.052 5.15372 103.864 5.22055C103.503 5.34859 103.078 5.32064 102.689 5.25942C102.388 5.21208 102.064 5.13625 101.759 5.06481C101.663 5.04235 101.569 5.02032 101.478 4.99975C101.081 4.90979 100.741 4.84685 100.473 4.8515C97.5447 4.90253 90.0693 4.91145 86.3976 4.91583C85.8056 4.91654 85.3124 4.91713 84.9532 4.91775C83.0218 5.04461 81.0901 5.17253 79.158 5.30047C57.9427 6.70533 36.6853 8.11298 15.4395 8.15647C15.1975 8.15697 15.0008 7.92056 15.0002 7.62844C14.9996 7.33632 15.1953 7.0991 15.4374 7.09861C32.669 7.06332 49.9053 6.12983 67.1345 5.02803C55.8901 5.14486 44.6502 5.35059 33.4022 5.64245C33.1727 5.64841 32.9804 5.44029 32.9566 5.16962C20.5654 5.22097 10.3877 5.2105 5.03127 5.18132C3.54495 5.17323 2.42881 5.16369 1.73936 5.15361C1.39609 5.14859 1.15421 5.14338 1.02517 5.13798C0.993021 5.13663 0.96409 5.13512 0.940934 5.13331C0.930043 5.13245 0.915124 5.13114 0.899697 5.12899C0.891365 5.12778 0.873703 5.12463 0.86254 5.12221C0.842635 5.11714 0.777159 5.09203 0.732497 5.06653C0.579352 4.90026 0.544279 4.37495 0.707973 4.15252C0.759972 4.11872 0.836211 4.08672 0.858345 4.0808C0.886707 4.07402 0.912306 4.07147 0.920159 4.07069L0.920766 4.07063C0.943996 4.0683 0.972525 4.06668 1.00121 4.06536C1.45585 4.04456 3.84314 4.02592 8.58948 4.0162C11.1878 4.01088 13.786 4.00614 16.3842 4.00141C32.9046 3.97129 49.4231 3.94118 65.9409 3.76117C75.1853 3.66043 77.7965 3.61221 81.3847 3.54594C83.8323 3.50074 86.7345 3.44714 92.5068 3.36275C92.5548 3.36205 92.6027 3.36135 92.6506 3.36064Z" fill="#98F6F5"/>
</svg>
