<svg width="50" height="60" viewBox="0 0 50 60" fill="none" xmlns="http://www.w3.org/2000/svg">
<path d="M0.573486 42.397H6.7621V59.4307H0.573486V42.397Z" fill="white"/>
<mask id="mask0_13_488" style="mask-type:luminance" maskUnits="userSpaceOnUse" x="0" y="41" width="8" height="20">
<path d="M0.00012207 41.6765H7.43812V60.007H0.00012207V41.6765Z" fill="white"/>
</mask>
<g mask="url(#mask0_13_488)">
<path d="M6.762 60.003H0.573392C0.258529 60.003 0 59.7455 0 59.4306V42.3969C0 42.081 0.258529 41.8235 0.573392 41.8235H6.762C7.07687 41.8235 7.33539 42.081 7.33539 42.3969V59.4306C7.33539 59.7455 7.07687 60.003 6.762 60.003ZM1.14678 58.8573H6.18861V42.9693H1.14678V58.8573Z" fill="black"/>
</g>
<path d="M6.76221 45.4483L13.4095 40.3914H31.0026C32.7067 40.3914 34.0828 41.7665 34.0828 43.4716C34.0828 45.1767 32.7067 46.5518 31.0026 46.5518H20.3727L21.9913 47.0668C24.7989 47.9702 27.7212 48.4571 30.6586 48.5285L35.6008 48.6573L40.2 45.0046C42.8497 42.8982 46.5747 42.8127 49.3109 44.8035L36.9478 56.2643L22.4349 57.7692L6.76221 56.1506V45.4483Z" fill="white"/>
<path d="M22.45 58.3415C22.4349 58.3415 22.4067 58.3415 22.3926 58.3415L6.70483 56.7229C6.41814 56.6947 6.18878 56.4513 6.18878 56.1505V45.4482C6.18878 45.2762 6.27529 45.1041 6.41814 44.9895L13.0655 39.9325C13.1661 39.8611 13.2807 39.8179 13.4095 39.8179H31.0026C33.0084 39.8179 34.6552 41.4515 34.6552 43.4715C34.6552 45.4914 33.0225 47.1241 31.0026 47.1241H24.312C26.3893 47.6261 28.5239 47.9128 30.6726 47.9701L35.4147 48.0989L39.8559 44.574C42.6927 42.3106 46.7326 42.2251 49.669 44.3597C49.8129 44.4593 49.8984 44.6173 49.8984 44.7893C49.8984 44.9613 49.841 45.1333 49.7123 45.248L37.3491 56.7088C37.2626 56.7943 37.1479 56.8516 37.0192 56.8516L22.5073 58.3565C22.4922 58.3415 22.4641 58.3415 22.45 58.3415ZM7.33557 55.6344L22.45 57.1957L36.7184 55.7059L48.4085 44.8748C45.9591 43.4574 42.8356 43.6576 40.5722 45.4482L35.974 49.1018C35.8734 49.1873 35.7295 49.2306 35.6008 49.2306L30.6585 49.1018C27.6638 49.0153 24.6842 48.5143 21.8333 47.612L20.2007 47.0818C19.9281 46.9953 19.7701 46.7237 19.8134 46.4511C19.8566 46.1785 20.1001 45.9642 20.3868 45.9642H31.0167C32.3918 45.9642 33.5235 44.8466 33.5235 43.4574C33.5235 42.0672 32.4059 40.9496 31.0167 40.9496H13.6107L7.33557 45.7208V55.6344Z" fill="black"/>
<mask id="mask1_13_488" style="mask-type:luminance" maskUnits="userSpaceOnUse" x="17" y="2" width="32" height="35">
<path d="M17.2241 2.27588H48.6419V36.784H17.2241V2.27588Z" fill="white"/>
</mask>
<g mask="url(#mask1_13_488)">
<mask id="mask2_13_488" style="mask-type:luminance" maskUnits="userSpaceOnUse" x="14" y="-1" width="36" height="39">
<path d="M17.8727 -0.348145L49.8851 2.53189L46.7535 37.3308L14.7411 34.4507L17.8727 -0.348145Z" fill="white"/>
</mask>
<g mask="url(#mask2_13_488)">
<mask id="mask3_13_488" style="mask-type:luminance" maskUnits="userSpaceOnUse" x="14" y="-1" width="36" height="39">
<path d="M17.8726 -0.348145L49.885 2.53189L46.7535 37.3308L14.7411 34.4507L17.8726 -0.348145Z" fill="white"/>
</mask>
<g mask="url(#mask3_13_488)">
<path d="M40.6697 36.7356C43.2741 34.8323 44.8142 31.6364 45.957 28.7091C47.148 25.6601 47.986 22.4249 48.3713 19.1727C48.7757 15.7545 48.2204 12.2537 46.294 9.3556C44.4249 6.54296 41.4372 4.61254 38.3007 3.48789C32.9017 1.55244 26.3792 2.10471 21.8604 5.83075C19.7298 7.58613 18.2712 10.0065 17.6686 12.6954C17.3286 14.2174 17.2904 15.7937 17.4503 17.3408C17.6334 19.1033 18.0489 20.9331 18.8758 22.5104C19.5608 23.8161 20.611 24.9016 21.9198 25.5876C23.2275 26.2727 24.6902 26.5664 26.1498 26.7002C27.7704 26.8481 29.4051 26.7928 31.0297 26.7445C32.6794 26.6952 34.3443 26.5875 35.9749 26.9044C38.013 27.2998 39.882 28.4415 40.7069 30.4102C41.1435 31.4523 41.219 32.6122 41.1194 33.7268C41.0691 34.3032 41.0127 35.0074 40.7834 35.5415C40.6435 35.8674 40.5027 36.1934 40.3629 36.5183C40.2633 36.7497 40.6285 36.8845 40.727 36.6551C40.9202 36.2054 41.1395 35.7699 41.2511 35.292C41.4443 34.4702 41.5539 33.6302 41.5459 32.7852C41.5338 31.4211 41.1576 30.0812 40.3357 28.9817C38.4858 26.5061 35.1953 26.2546 32.3636 26.321C29.2512 26.3934 25.8883 26.7495 22.9147 25.6138C21.4792 25.0665 20.2851 24.0817 19.4753 22.778C18.5166 21.2349 18.0972 19.3608 17.8688 17.5772C17.4815 14.5614 18.0066 11.452 19.6614 8.87274C21.1643 6.5329 23.483 4.84089 26.0573 3.84802C31.8877 1.59972 39.028 2.96681 43.7288 7.04091C46.3916 9.34856 47.8643 12.5817 48.0846 16.0743C48.1912 17.7643 47.987 19.4604 47.6892 21.1212C47.3925 22.78 46.979 24.4167 46.4811 26.0262C45.8423 28.0854 45.0496 30.1114 44.0145 32.0056C43.1041 33.6725 41.9704 35.3061 40.4202 36.4378C40.218 36.5857 40.4675 36.8824 40.6697 36.7356Z" fill="white"/>
</g>
</g>
</g>
<mask id="mask4_13_488" style="mask-type:luminance" maskUnits="userSpaceOnUse" x="16" y="0" width="33" height="36">
<path d="M16.4514 0.730469H48.3843V35.7537H16.4514V0.730469Z" fill="white"/>
</mask>
<g mask="url(#mask4_13_488)">
<mask id="mask5_13_488" style="mask-type:luminance" maskUnits="userSpaceOnUse" x="14" y="-1" width="36" height="39">
<path d="M17.873 -0.348145L49.8854 2.53189L46.7538 37.3308L14.7415 34.4507L17.873 -0.348145Z" fill="white"/>
</mask>
<g mask="url(#mask5_13_488)">
<mask id="mask6_13_488" style="mask-type:luminance" maskUnits="userSpaceOnUse" x="14" y="-1" width="36" height="39">
<path d="M17.8729 -0.348145L49.8853 2.53189L46.7538 37.3308L14.7414 34.4507L17.8729 -0.348145Z" fill="white"/>
</mask>
<g mask="url(#mask6_13_488)">
<path d="M40.2606 35.6339C42.8921 33.7125 44.4514 30.4824 45.6062 27.5269C46.8023 24.4618 47.6443 21.2085 48.0315 17.9392C48.442 14.4646 47.8656 10.9227 45.91 7.98026C44.0238 5.14247 41.001 3.18992 37.8352 2.0542C32.3719 0.0956096 25.7749 0.659948 21.2028 4.43025C19.029 6.22185 17.5563 8.68543 16.9426 11.4266C16.5976 12.9657 16.5644 14.5612 16.7263 16.1254C16.9104 17.903 17.3319 19.7519 18.1669 21.3413C18.8781 22.6963 19.9625 23.8079 21.3185 24.5181C22.6393 25.2102 24.1241 25.5069 25.5988 25.6427C27.2204 25.7906 28.8541 25.7343 30.4787 25.687C32.1275 25.6387 33.7943 25.5301 35.424 25.847C37.3966 26.2292 39.2013 27.3398 39.997 29.241C40.4205 30.252 40.4879 31.3787 40.3924 32.4581C40.3431 33.0184 40.2928 33.7024 40.0684 34.2225C39.9286 34.5484 39.7878 34.8734 39.648 35.1993C39.4488 35.662 40.1781 35.9306 40.3753 35.4729C40.5694 35.0232 40.7877 34.5867 40.9004 34.1088C41.0975 33.2699 41.2142 32.4158 41.2062 31.5527C41.1941 30.1333 40.8068 28.7501 39.9507 27.6064C38.0696 25.0885 34.7319 24.8088 31.8478 24.8772C28.7555 24.9486 25.4047 25.3088 22.4492 24.1811C21.065 23.653 19.9001 22.7044 19.1175 21.4449C18.1669 19.9139 17.7534 18.0599 17.5261 16.2914C17.1458 13.3289 17.6609 10.2678 19.2865 7.7348C20.7723 5.42011 23.0608 3.75526 25.6069 2.77345C31.376 0.547282 38.4368 1.92141 43.0833 5.94823C45.7078 8.2237 47.1433 11.4176 47.3596 14.8579C47.4652 16.5298 47.257 18.2098 46.9632 19.8535C46.6685 21.4942 46.2581 23.1148 45.7651 24.7072C45.1334 26.7493 44.3498 28.7642 43.3237 30.6423C42.4204 32.2951 41.2997 33.9157 39.7626 35.0373C39.3572 35.3341 39.8582 35.9286 40.2606 35.6339Z" fill="black"/>
</g>
</g>
</g>
</svg>
